<?xml version="1.0" encoding="utf-8"?><svg viewBox="0 0 48 48" xmlns="http://www.w3.org/2000/svg" xmlns:xlink="http://www.w3.org/1999/xlink"><style>:root>svg{display:none}:root>svg:target{display:block}</style><svg fill="none" viewBox="0 0 18 18" id="arrow-right" xmlns="http://www.w3.org/2000/svg"><path d="M3.75 9h10.5M9.75 13.5l4.5-4.5M9.75 4.5l4.5 4.5" stroke="#FFAB00" stroke-width="1.125" stroke-linecap="round" stroke-linejoin="round"/></svg><svg fill="none" viewBox="0 0 24 24" id="burger-menu" xmlns="http://www.w3.org/2000/svg"><path d="M7 8h10M7 12h10M7 16h10" stroke="#141718" stroke-width="1.5" stroke-linecap="round"/></svg><svg fill="none" viewBox="0 0 19 18" id="chevron-down" xmlns="http://www.w3.org/2000/svg"><path d="m5.204 6.75 4.5 4.5 4.5-4.5" stroke="#141718" stroke-width="1.125" stroke-linecap="round" stroke-linejoin="round"/></svg><svg fill="none" viewBox="0 0 20 20" id="close" xmlns="http://www.w3.org/2000/svg"><path fill-rule="evenodd" clip-rule="evenodd" d="M15.442 5.442a.625.625 0 1 0-.884-.884L10 9.116 5.442 4.558a.625.625 0 1 0-.884.884L9.116 10l-4.558 4.558a.625.625 0 1 0 .884.884L10 10.884l4.558 4.558a.625.625 0 1 0 .884-.884L10.884 10l4.558-4.558Z" fill="#343839"/></svg><svg fill="none" viewBox="0 0 24 24" id="close-nav" xmlns="http://www.w3.org/2000/svg"><path fill-rule="evenodd" clip-rule="evenodd" d="M5.293 5.293a1 1 0 0 1 1.414 0L12 10.586l5.293-5.293a1 1 0 1 1 1.414 1.414L13.414 12l5.293 5.293a1 1 0 0 1-1.414 1.414L12 13.414l-5.293 5.293a1 1 0 0 1-1.414-1.414L10.586 12 5.293 6.707a1 1 0 0 1 0-1.414Z" fill="#6C7275"/></svg><svg fill="none" viewBox="0 0 24 24" id="email" xmlns="http://www.w3.org/2000/svg"><path fill-rule="evenodd" clip-rule="evenodd" d="M4.077 6.53a1.25 1.25 0 0 1 1.195-.884h14c.564 0 1.04.373 1.196.885l-8.196 5.464L4.077 6.53Zm-1.555.352v10.014a2.75 2.75 0 0 0 2.75 2.75h14a2.75 2.75 0 0 0 2.75-2.75v-9.99m-1.5 1.391v8.599c0 .69-.56 1.25-1.25 1.25h-14c-.69 0-1.25-.56-1.25-1.25V8.297l7.834 5.223a.75.75 0 0 0 .832 0l7.834-5.223Zm1.5-1.415a2.75 2.75 0 0 0-2.75-2.736h-14a2.75 2.75 0 0 0-2.75 2.736" fill="#141718"/></svg><svg fill="none" viewBox="0 0 20 20" id="favorites" xmlns="http://www.w3.org/2000/svg"><path fill-rule="evenodd" clip-rule="evenodd" d="M10.577 5.764a.833.833 0 0 1-1.154 0l-.577-.554A3.75 3.75 0 0 0 2.5 7.916c0 1.986 1.075 3.626 2.627 4.973 1.552 1.348 3.41 2.242 4.519 2.699a.914.914 0 0 0 .708 0c1.11-.457 2.967-1.351 4.52-2.7 1.551-1.346 2.626-2.986 2.626-4.971a3.75 3.75 0 0 0-6.346-2.707l-.577.554ZM10 4.008A5.417 5.417 0 0 0 .833 7.917c0 5.306 5.809 8.237 8.179 9.212a2.58 2.58 0 0 0 1.976 0c2.37-.975 8.179-3.906 8.179-9.212A5.417 5.417 0 0 0 10 4.008Z" fill="#6C7275"/></svg><svg fill="none" viewBox="0 0 24 25" id="heart" xmlns="http://www.w3.org/2000/svg"><path fill-rule="evenodd" clip-rule="evenodd" d="M12.692 7.584a1 1 0 0 1-1.384 0l-.693-.665A4.5 4.5 0 0 0 3 10.166c0 2.383 1.29 4.35 3.152 5.967 1.863 1.618 4.091 2.691 5.423 3.239.278.114.572.114.85 0 1.332-.548 3.56-1.62 5.423-3.239C19.71 14.517 21 12.55 21 10.167a4.5 4.5 0 0 0-7.615-3.248l-.693.665ZM12 5.476a6.5 6.5 0 0 0-11 4.69c0 6.369 6.97 9.886 9.814 11.055a3.096 3.096 0 0 0 2.372 0C16.03 20.051 23 16.535 23 10.167a6.5 6.5 0 0 0-11-4.69Z" fill="#141718"/></svg><svg fill="none" viewBox="0 0 24 24" id="search" xmlns="http://www.w3.org/2000/svg"><path d="M18.5 18.5 22 22m-1-10.5a9.5 9.5 0 1 0-19 0 9.5 9.5 0 0 0 19 0Z" stroke="#141718" stroke-width="1.5" stroke-linecap="round" stroke-linejoin="round"/></svg><svg fill="none" viewBox="0 0 24 24" id="shopping_bag" xmlns="http://www.w3.org/2000/svg"><path d="M9 6v1a3 3 0 1 0 6 0V6" stroke="#141718" stroke-width="1.5" stroke-linecap="round" stroke-linejoin="round"/><path d="M15.612 3H8.389a4 4 0 0 0-3.946 3.342l-1.667 10A4 4 0 0 0 6.722 21h10.556a4 4 0 0 0 3.946-4.658l-1.667-10A4 4 0 0 0 15.612 3Z" stroke="#141718" stroke-width="1.5" stroke-linejoin="round"/></svg><svg fill="none" viewBox="0 0 24 24" id="socials--telegram" xmlns="http://www.w3.org/2000/svg"><path fill-rule="evenodd" clip-rule="evenodd" d="M5.788 14.02a.746.746 0 0 0 .132.031 456.056 456.056 0 0 1 .844 2.002c.503 1.202 1.01 2.44 1.121 2.796.139.438.285.736.445.94.083.104.178.196.29.266a.88.88 0 0 0 .186.088c.32.12.612.07.795.009a1.313 1.313 0 0 0 .304-.15L9.91 20l2.826-1.762 3.265 2.502c.048.037.1.068.156.093.392.17.772.23 1.13.182.356-.05.639-.199.85-.368a1.992 1.992 0 0 0 .564-.728l.009-.022.003-.008.002-.004v-.002l.001-.001a.756.756 0 0 0 .04-.133l2.98-15.025a.752.752 0 0 0 .014-.146c0-.44-.166-.859-.555-1.112-.334-.217-.705-.227-.94-.209-.252.02-.486.082-.643.132a3.458 3.458 0 0 0-.26.094l-.011.005-16.714 6.556-.002.001a2.296 2.296 0 0 0-.167.069 2.522 2.522 0 0 0-.38.212c-.227.155-.75.581-.661 1.285.07.56.454.905.689 1.071.128.091.25.156.34.199.04.02.126.054.163.07l.01.003 3.169 1.067Zm14.138-9.152h-.002a.785.785 0 0 1-.026.011L3.164 11.444a.818.818 0 0 1-.026.01l-.01.003a1.126 1.126 0 0 0-.09.04.851.851 0 0 0 .086.043l3.142 1.058a.75.75 0 0 1 .16.076l10.377-6.075.01-.005a1.59 1.59 0 0 1 .124-.068c.072-.037.187-.091.317-.131.09-.028.357-.107.645-.014a.854.854 0 0 1 .588.689.84.84 0 0 1 .003.424c-.07.275-.262.489-.438.653-.15.14-2.095 2.016-4.014 3.868l-2.613 2.52-.465.45 5.872 4.502a.536.536 0 0 0 .251.04.229.229 0 0 0 .117-.052.495.495 0 0 0 .103-.12l.002-.001 2.89-14.573a1.858 1.858 0 0 0-.267.086h-.002Zm-8.461 12.394-1.172-.898-.284 1.805 1.456-.907Zm-2.247-2.68 1.165-1.125 2.613-2.522.973-.938-6.52 3.817.035.082a339.2 339.2 0 0 1 1.22 2.92l.283-1.8a.747.747 0 0 1 .231-.435Z" fill="#000"/></svg><svg fill="none" viewBox="0 0 24 24" id="socials--vk" xmlns="http://www.w3.org/2000/svg"><path fill-rule="evenodd" clip-rule="evenodd" d="M23.405 16.865a11.394 11.394 0 0 0-2.123-2.964 15.527 15.527 0 0 0-.905-.94l-.038-.037a18.573 18.573 0 0 1-.346-.345 29.72 29.72 0 0 0 3.01-5.237l.033-.074.023-.078c.109-.363.233-1.053-.207-1.677-.456-.644-1.185-.76-1.674-.76h-2.247a2.232 2.232 0 0 0-2.19 1.442 17.506 17.506 0 0 1-1.806 3.271V6.833c0-.34-.032-.91-.397-1.39-.436-.576-1.067-.69-1.505-.69H9.467a1.813 1.813 0 0 0-1.85 1.682l-.003.045v.045c0 .485.192.843.346 1.068.069.101.142.193.189.251l.01.013c.05.062.083.103.116.149.088.118.213.302.249.776v1.473a19.785 19.785 0 0 1-1.751-3.792l-.008-.022-.008-.021c-.122-.319-.317-.783-.708-1.137-.456-.415-.996-.53-1.487-.53h-2.28c-.497 0-1.096.116-1.543.587C.3 5.804.25 6.36.25 6.654v.134l.028.13a19.43 19.43 0 0 0 3.801 8.02 10.151 10.151 0 0 0 7.893 4.692l.041.003h.042c.726 0 1.483-.063 2.052-.442.767-.512.828-1.297.828-1.689v-1.138c.197.16.441.374.74.662.362.362.65.676.897.95l.132.146c.192.214.381.425.553.598.216.217.483.456.817.633.363.191.744.278 1.148.278h2.281c.481 0 1.17-.114 1.655-.676.528-.612.488-1.363.322-1.902l-.03-.097-.045-.091Zm-5.72.106a26.137 26.137 0 0 0-.957-1.014l-.003-.003c-1.357-1.308-1.99-1.535-2.438-1.535-.239 0-.502.026-.673.24a.774.774 0 0 0-.147.348 2.452 2.452 0 0 0-.032.444v2.051c0 .255-.042.362-.16.44-.157.105-.492.19-1.211.19a8.65 8.65 0 0 1-6.752-4.052l-.008-.013-.01-.012A17.93 17.93 0 0 1 1.75 6.63c.004-.13.032-.209.078-.257.047-.05.162-.12.454-.12h2.28c.253 0 .385.056.48.141.106.098.2.263.312.557.56 1.646 1.316 3.186 2.033 4.317.358.566.71 1.037 1.028 1.37.159.166.314.304.463.402.143.094.306.169.474.169.088 0 .191-.01.29-.053a.523.523 0 0 0 .25-.232c.103-.188.132-.465.132-.828V8.723c-.053-.818-.3-1.279-.54-1.606a5.66 5.66 0 0 0-.15-.193l-.013-.016a2.694 2.694 0 0 1-.122-.16.39.39 0 0 1-.085-.214.313.313 0 0 1 .324-.282h3.595c.206 0 .275.05.31.097.05.065.092.2.092.484v4.528c0 .538.248.902.608.902.414 0 .713-.251 1.235-.773l.009-.01.008-.009a19.01 19.01 0 0 0 2.84-4.722l.004-.012a.732.732 0 0 1 .74-.485h2.3c.312 0 .414.08.448.127.035.05.06.157 0 .367a28.216 28.216 0 0 1-3.029 5.2l-.008.012c-.115.177-.242.373-.26.597-.02.242.084.461.267.697.133.196.408.465.687.738l.026.026c.292.286.609.596.863.896l.007.007.007.008a9.892 9.892 0 0 1 1.865 2.586c.076.26.03.394-.03.463-.069.08-.224.155-.518.155h-2.282a.91.91 0 0 1-.447-.105 1.96 1.96 0 0 1-.454-.364c-.143-.143-.298-.316-.488-.527l-.147-.164Z" fill="#000"/></svg><svg fill="none" viewBox="0 0 24 24" id="socials--youtube" xmlns="http://www.w3.org/2000/svg"><path fill-rule="evenodd" clip-rule="evenodd" d="M10.386 8.357A.75.75 0 0 0 9.25 9v6a.75.75 0 0 0 1.136.643l5-3a.75.75 0 0 0 0-1.286l-5-3ZM13.542 12l-2.792 1.675v-3.35L13.542 12Z" fill="#000"/><path fill-rule="evenodd" clip-rule="evenodd" d="M17.03 4.641a64.499 64.499 0 0 0-10.06 0l-2.241.176a2.975 2.975 0 0 0-2.703 2.475 28.566 28.566 0 0 0 0 9.416 2.975 2.975 0 0 0 2.703 2.475l2.24.176c3.349.262 6.713.262 10.062 0l2.24-.176a2.975 2.975 0 0 0 2.703-2.475c.52-3.117.52-6.299 0-9.416a2.975 2.975 0 0 0-2.703-2.475l-2.24-.176ZM7.087 6.137a62.998 62.998 0 0 1 9.828 0l2.24.175c.676.053 1.229.56 1.34 1.228a27.066 27.066 0 0 1 0 8.92 1.475 1.475 0 0 1-1.34 1.228l-2.24.175c-3.271.256-6.557.256-9.828 0l-2.24-.175a1.475 1.475 0 0 1-1.34-1.228 27.066 27.066 0 0 1 0-8.92 1.475 1.475 0 0 1 1.34-1.228l2.24-.175Z" fill="#000"/></svg><svg fill="none" viewBox="0 0 14 14" id="star" xmlns="http://www.w3.org/2000/svg"><path d="M6.538 1.11a.5.5 0 0 1 .924 0l1.537 3.696a.5.5 0 0 0 .421.306l3.99.32a.5.5 0 0 1 .285.878l-3.04 2.604a.5.5 0 0 0-.16.496l.928 3.893a.5.5 0 0 1-.747.542L7.261 11.76a.5.5 0 0 0-.522 0l-3.415 2.086a.5.5 0 0 1-.747-.542l.928-3.893a.5.5 0 0 0-.16-.496L.304 6.31a.5.5 0 0 1 .285-.878l3.99-.32A.5.5 0 0 0 5 4.806L6.538 1.11Z" fill="#343839"/></svg><svg fill="none" viewBox="0 0 24 24" id="ticket-percent" xmlns="http://www.w3.org/2000/svg"><path d="m21.018 14.836-.245.708.245-.708Zm0-5.672.245.71-.245-.71ZM2.982 14.836l.245.708-.245-.708Zm0-5.672-.245.71.245-.71Zm12.548.366a.75.75 0 0 0-1.06-1.06l1.06 1.06Zm-7.06 4.94a.75.75 0 1 0 1.06 1.06l-1.06-1.06ZM6 20.25A3.25 3.25 0 0 1 2.75 17h-1.5A4.75 4.75 0 0 0 6 21.75v-1.5ZM21.25 17A3.25 3.25 0 0 1 18 20.25v1.5A4.75 4.75 0 0 0 22.75 17h-1.5ZM18 3.75A3.25 3.25 0 0 1 21.25 7h1.5A4.75 4.75 0 0 0 18 2.25v1.5ZM6 2.25A4.75 4.75 0 0 0 1.25 7h1.5A3.25 3.25 0 0 1 6 3.75v-1.5Zm15.264 11.877A2.251 2.251 0 0 1 19.75 12h-1.5a3.751 3.751 0 0 0 2.523 3.544l.49-1.417ZM19.75 12c0-.984.631-1.822 1.514-2.127l-.491-1.417A3.751 3.751 0 0 0 18.25 12h1.5Zm-15.5 0c0 .984-.632 1.822-1.513 2.127l.49 1.417A3.751 3.751 0 0 0 5.75 12h-1.5ZM2.737 9.873A2.251 2.251 0 0 1 4.25 12h1.5a3.751 3.751 0 0 0-2.523-3.544l-.49 1.417ZM22.75 8V7h-1.5v1h1.5Zm-1.5 8v1h1.5v-1h-1.5Zm-20 0v1h1.5v-1h-1.5Zm1.5-8V7h-1.5v1h1.5ZM18 20.25H6v1.5h12v-1.5Zm0-18H6v1.5h12v-1.5ZM2.737 14.127c-.68.235-1.487.87-1.487 1.873h1.5c0-.056.02-.13.102-.219a.92.92 0 0 1 .375-.237l-.49-1.417Zm18.527-4.254c.678-.235 1.486-.87 1.486-1.873h-1.5c0 .056-.02.13-.102.219a.921.921 0 0 1-.375.237l.49 1.417ZM3.227 8.456a.921.921 0 0 1-.375-.237C2.77 8.129 2.75 8.056 2.75 8h-1.5c0 1.002.808 1.638 1.487 1.873l.49-1.417Zm17.546 7.088a.92.92 0 0 1 .375.237c.081.09.102.163.102.219h1.5c0-1.002-.808-1.638-1.486-1.873l-.491 1.417ZM9.25 9a.25.25 0 0 1-.25.25v1.5A1.75 1.75 0 0 0 10.75 9h-1.5ZM9 9.25A.25.25 0 0 1 8.75 9h-1.5c0 .966.784 1.75 1.75 1.75v-1.5ZM8.75 9A.25.25 0 0 1 9 8.75v-1.5A1.75 1.75 0 0 0 7.25 9h1.5ZM9 8.75a.25.25 0 0 1 .25.25h1.5A1.75 1.75 0 0 0 9 7.25v1.5ZM15.25 15a.25.25 0 0 1-.25.25v1.5A1.75 1.75 0 0 0 16.75 15h-1.5Zm-.25.25a.25.25 0 0 1-.25-.25h-1.5c0 .966.784 1.75 1.75 1.75v-1.5Zm-.25-.25a.25.25 0 0 1 .25-.25v-1.5A1.75 1.75 0 0 0 13.25 15h1.5Zm.25-.25a.25.25 0 0 1 .25.25h1.5A1.75 1.75 0 0 0 15 13.25v1.5Zm-.53-6.28-6 6 1.06 1.06 6-6-1.06-1.06Z" fill="#FEFEFE"/></svg><svg fill="none" viewBox="0 0 24 24" id="user" xmlns="http://www.w3.org/2000/svg"><path d="M18.559 19.549a7.003 7.003 0 0 0-13.118 0m13.118 0A9.976 9.976 0 0 0 22 12c0-5.523-4.477-10-10-10S2 6.477 2 12a9.977 9.977 0 0 0 3.441 7.549m13.118 0A9.961 9.961 0 0 1 12 22a9.961 9.961 0 0 1-6.559-2.451M15 9a3 3 0 1 1-6 0 3 3 0 0 1 6 0Z" stroke="#141718" stroke-width="1.5" stroke-linejoin="round"/></svg><svg fill="none" viewBox="0 0 48 48" id="values--call" xmlns="http://www.w3.org/2000/svg"><path d="M42 38v-3.292a4 4 0 0 0-2.514-3.714l-4.069-1.627a4 4 0 0 0-5.063 1.925L30 32s-5-1-9-5-5-9-5-9l.708-.354a4 4 0 0 0 1.925-5.063l-1.627-4.069A4 4 0 0 0 13.292 6H10a4 4 0 0 0-4 4c0 17.673 14.327 32 32 32a4 4 0 0 0 4-4Z" stroke="#141718" stroke-width="2.5" stroke-linejoin="round"/></svg><svg fill="none" viewBox="0 0 48 48" id="values--finance" xmlns="http://www.w3.org/2000/svg"><rect x="4" y="8" width="40" height="32" rx="4" stroke="#141718" stroke-width="2.5"/><circle cx="4" cy="4" r="4" transform="matrix(1 0 0 -1 20 28)" stroke="#141718" stroke-width="2.5"/><circle cx="2" cy="2" r="2" transform="matrix(1 0 0 -1 34 26)" fill="#141718"/><circle cx="2" cy="2" r="2" transform="matrix(1 0 0 -1 10 26)" fill="#141718"/></svg><svg fill="none" viewBox="0 0 48 48" id="values--lock" xmlns="http://www.w3.org/2000/svg"><path d="M32 16H16m16 0a8 8 0 0 1 8 8v12a8 8 0 0 1-8 8H16a8 8 0 0 1-8-8V24a8 8 0 0 1 8-8m16 0v-4a8 8 0 1 0-16 0v4m8 16v-4" stroke="#141718" stroke-width="2.5" stroke-linecap="round"/></svg><svg fill="none" viewBox="0 0 48 48" id="values--shipping" xmlns="http://www.w3.org/2000/svg"><path d="M28 38V14m0 24h4m-4 0H18m10-24a8 8 0 0 0-8-8h-8a8 8 0 0 0-8 8v16a8.003 8.003 0 0 0 6.008 7.75M28 14h6.418a4 4 0 0 1 2.736 1.082l5.582 5.233A4 4 0 0 1 44 23.233V34a4 4 0 0 1-4 4m0 0a4 4 0 0 1-8 0m8 0a4 4 0 0 0-8 0m-14 0a4 4 0 1 1-7.992-.25M18 38a4 4 0 0 0-7.992-.25" stroke="#141718" stroke-width="2.5"/><path d="M20 16h-4M20 24h-8" stroke="#141718" stroke-width="2.5" stroke-linecap="round" stroke-linejoin="round"/></svg></svg>