<svg width="23.000000" height="21.000000" viewBox="0 0 23 21" fill="none" xmlns="http://www.w3.org/2000/svg" xmlns:xlink="http://www.w3.org/1999/xlink">
	<desc>
			Created with Pixso.
	</desc>
	<defs/>
	<path id="beard-icon" d="M22.7291 0L22.6248 0C21.5827 3.26733 21.3117 7.2475 18.4563 8.76239C17.9248 7.33661 16.6117 6.68317 15.1318 6.05939C14.2137 5.54248 13.2146 5.16809 12.1722 4.9505C11.9376 4.91901 11.6986 4.96436 11.4948 5.07922C11.2939 4.96661 11.059 4.92126 10.8278 4.9505C9.789 5.16913 8.79352 5.54346 7.87854 6.05939C6.38831 6.68317 5.08563 7.33661 4.55414 8.76239C1.67786 7.2475 1.40686 3.26733 0.375183 0L0.270935 0C0.151794 0.322266 0.0611572 0.653503 0 0.990112C0.0488281 5.03503 0.334167 9.07422 0.854553 13.0891C1.40686 15.7624 3.57452 17.6832 5.67963 18.9505C7.14905 19.802 9.48346 21 11.4635 21C13.4436 21 15.8405 19.802 17.3204 18.9505C19.4046 17.6832 21.5827 15.7624 22.1454 13.0891C22.6658 9.07422 22.9512 5.03503 23 0.990112C22.9388 0.653503 22.8482 0.322266 22.7291 0L22.7291 0ZM16.4762 11.8812C16.4165 12.244 16.2404 12.5805 15.9717 12.8445C15.7031 13.1086 15.3552 13.2874 14.9755 13.3564C13.6416 13.4257 12.9642 11.4852 11.4635 11.4951C9.96283 11.5049 9.28546 13.4257 7.95154 13.3564C7.57764 13.282 7.23657 13.1008 6.97394 12.8372C6.71136 12.5735 6.53979 12.24 6.48212 11.8812C6.43201 11.4544 6.4726 11.0225 6.6015 10.6109C6.73041 10.1993 6.94495 9.81647 7.23242 9.48517C7.72223 9.02972 8.49341 9.08911 9.31671 8.98022C10.102 8.92853 10.8515 8.6485 11.4635 8.17822C12.0784 8.66132 12.8356 8.95184 13.6312 9.00989C14.4649 9.11884 15.2361 9.05939 15.7155 9.51483C16.0063 9.83948 16.2263 10.2159 16.3622 10.6223C16.4982 11.0286 16.5476 11.4565 16.5074 11.8812L16.4762 11.8812Z" fill="#826550" fill-opacity="1.000000" fill-rule="nonzero"/>
</svg>
