<svg width="45.000000" height="12.000000" viewBox="0 0 45 12" fill="none" xmlns="http://www.w3.org/2000/svg" xmlns:xlink="http://www.w3.org/1999/xlink">
	<desc>
			Created with Pixso.
	</desc>
	<defs/>
	<path id="mustache-icon" d="M22.49 7.66534C23.4532 9.00677 24.76 10.1044 26.2927 10.8594C27.8253 11.6143 29.5358 12.0031 31.27 11.9904C38.43 12.2509 45 7.13513 45 5.21912C42.22 7.5351 37.61 7.74902 35.05 6.79102C31.27 5.39581 31.93 2.61475 29.17 0.801025C28.329 0.27948 27.3408 0.0012207 26.33 0.0012207C25.3192 0.0012207 24.3311 0.27948 23.49 0.801025C23.121 1.00812 22.7844 1.26166 22.49 1.55438C22.1934 1.26379 21.8572 1.0105 21.49 0.801025C20.6475 0.278687 19.6575 0 18.645 0C17.6324 0 16.6426 0.278687 15.8 0.801025C13.05 2.66125 13.71 5.38654 9.92999 6.79102C7.37 7.72113 2.76001 7.5351 0 5.21912C0 7.13513 6.54999 12.2509 13.71 11.9904C15.4443 12.0031 17.1547 11.6143 18.6873 10.8594C20.22 10.1044 21.5267 9.00677 22.49 7.66534Z" fill="#826550" fill-opacity="1.000000" fill-rule="nonzero"/>
</svg>
