<svg width="21.000000" height="20.000000" viewBox="0 0 21 20" fill="none" xmlns="http://www.w3.org/2000/svg" xmlns:xlink="http://www.w3.org/1999/xlink">
	<desc>
			Created with Pixso.
	</desc>
	<defs/>
	<path id="scissors-icon" d="M8 4C8 3.20886 7.76538 2.43555 7.32587 1.77771C6.88635 1.11993 6.26166 0.607239 5.53076 0.304504C4.7998 0.00170898 3.99554 -0.0774536 3.21967 0.0768433C2.44373 0.231201 1.73096 0.612183 1.17157 1.17157C0.612183 1.73096 0.231201 2.44373 0.0768433 3.21967C-0.0774536 3.99554 0.00170898 4.7998 0.304504 5.53076C0.607239 6.26166 1.11993 6.88635 1.77771 7.32587C2.43555 7.76538 3.20886 8 4 8C4.56061 8.02264 5.11597 7.88379 5.59998 7.59998L8 10L5.59998 12.4C5.11597 12.1162 4.56061 11.9774 4 12C3.20886 12 2.43555 12.2346 1.77771 12.6741C1.11993 13.1136 0.607239 13.7383 0.304504 14.4692C0.00170898 15.2002 -0.0774536 16.0045 0.0768433 16.7803C0.231201 17.5563 0.612183 18.269 1.17157 18.8284C1.73096 19.3878 2.44373 19.7688 3.21967 19.9232C3.99554 20.0775 4.7998 19.9983 5.53076 19.6955C6.26166 19.3928 6.88635 18.8801 7.32587 18.2223C7.76538 17.5645 8 16.7911 8 16C8.02264 15.4394 7.88379 14.884 7.59998 14.4L10 12L17 19L21 19L7.59998 5.59998C7.88379 5.11597 8.02264 4.56061 8 4ZM4 6C3.60443 6 3.21777 5.88269 2.88885 5.66296C2.55994 5.44318 2.30359 5.1308 2.15222 4.76538C2.00085 4.3999 1.96124 3.9978 2.03845 3.6098C2.1156 3.22186 2.30609 2.86548 2.58582 2.58582C2.86548 2.30609 3.22186 2.1156 3.6098 2.03845C3.9978 1.96124 4.3999 2.00085 4.76538 2.15222C5.1308 2.30359 5.44318 2.55994 5.66296 2.88885C5.88269 3.21777 6 3.60443 6 4C6 4.53046 5.78931 5.03912 5.41425 5.41425C5.03912 5.78931 4.53046 6 4 6ZM4 18C3.60443 18 3.21777 17.8827 2.88885 17.663C2.55994 17.4432 2.30359 17.1308 2.15222 16.7654C2.00085 16.3999 1.96124 15.9978 2.03845 15.6098C2.1156 15.2219 2.30609 14.8655 2.58582 14.5858C2.86548 14.3061 3.22186 14.1156 3.6098 14.0385C3.9978 13.9612 4.3999 14.0009 4.76538 14.1522C5.1308 14.3036 5.44318 14.5599 5.66296 14.8889C5.88269 15.2178 6 15.6044 6 16C6 16.5305 5.78931 17.0391 5.41425 17.4142C5.03912 17.7893 4.53046 18 4 18ZM10 9.5C10.0989 9.5 10.1956 9.5293 10.2778 9.58429C10.36 9.63922 10.4241 9.71729 10.4619 9.80865C10.4998 9.90002 10.5097 10.0005 10.4904 10.0975C10.4711 10.1945 10.4235 10.2836 10.3536 10.3536C10.2836 10.4235 10.1945 10.4711 10.0975 10.4904C10.0005 10.5097 9.90002 10.4998 9.80865 10.4619C9.71729 10.4241 9.63922 10.36 9.58429 10.2778C9.5293 10.1956 9.5 10.0989 9.5 10C9.49561 9.93323 9.50549 9.86621 9.52905 9.80353C9.55261 9.74091 9.58929 9.68396 9.63666 9.63666C9.68396 9.58929 9.74091 9.55261 9.80353 9.52905C9.86621 9.50549 9.93323 9.49561 10 9.5ZM21 1L17 1L11 7L13 9L21 1Z" fill="#826550" fill-opacity="1.000000" fill-rule="nonzero"/>
</svg>
