<svg class="logo" width="370" height="153" aria-label="Барбершоп «Бородинский»" xmlns="http://www.w3.org/2000/svg"><style/><g class="logo__borodinsky"><path fill="#fff" d="M11.436 73.276L5.72 78.99.003 73.275 5.72 67.56zm351.988-.016l-5.717 5.715-5.715-5.717 5.717-5.715z"/><g fill="#636466"><path d="M46.8 73.48h2.082v-8.324h3.275v-2.084H46.8M61.69 75.01V62.323c0-1.795-1.066-3.325-2.562-4.07.298.603.48 1.27.48 1.987v12.687a4.47 4.47 0 01-1.662 3.51c.924.986 1.662 2.095 1.662 3.695v14.104c0 2.463-2.094 4.557-4.557 4.557H41.49v2.084h15.644c2.463 0 4.557-2.094 4.557-4.557V82.215c0-1.602-.737-2.71-1.66-3.695a4.473 4.473 0 001.66-3.51z"/><path d="M46.8 91.34h2.082v-8.385h3.275V80.87H46.8m33.01 10.47h2.083V65.156h3.275v-2.084H79.81"/><path d="M92.14 58.254c.297.602.48 1.27.48 1.986v33.994c0 2.463-2.095 4.557-4.558 4.557H76.978a4.47 4.47 0 01-1.987-.48c.745 1.497 2.275 2.565 4.07 2.565h11.086c2.463 0 4.557-2.094 4.557-4.557V62.324c0-1.795-1.068-3.325-2.564-4.07zm20.68 15.226h2.083v-8.324h3.276v-2.084h-5.36m12.246 19.451a4.47 4.47 0 002.586-4.064V62.323a4.557 4.557 0 00-2.565-4.098c.3.61.483 1.286.483 2.014v16.135a4.466 4.466 0 01-2.586 4.064l3.08 18.35h-5.66l.352 2.085h7.39l-3.08-18.352zm-9.412-1.653h-2.833v17.92h-5.306v2.085h7.39v-17.92h1.1m28.844 8.385h2.083V65.156h3.276v-2.084h-5.358"/><path d="M157.177 58.254c.298.602.48 1.27.48 1.986v33.994c0 2.463-2.094 4.557-4.557 4.557h-11.086a4.462 4.462 0 01-1.985-.48c.742 1.497 2.272 2.565 4.067 2.565h11.086c2.463 0 4.557-2.094 4.557-4.557V62.324c0-1.795-1.067-3.325-2.563-4.07zm20.681 33.086h2.083V65.156h3.277v-2.084h-5.36"/><path d="M190.188 58.254c.298.602.48 1.27.48 1.986v33.994c0 2.463-2.094 4.557-4.557 4.557h-13.56v2.085h15.644c2.463 0 4.557-2.094 4.557-4.557V62.324c0-1.795-1.066-3.325-2.562-4.07zm21.052-.488V98.79h-5.307v2.085h7.39v-43.11m30.803.001V98.79h-5.906l.6 2.085h7.39v-43.11m-14.894 22.182V98.79h-5.306v2.085h7.39V87.19m30.178-4.235h6.107V80.87h-8.19c-.722 0-1.394-.18-1.998-.476a4.532 4.532 0 004.08 2.56zm2.832 2.77l-2.083.486v5.13h2.083m10.246-33.087c.298.602.48 1.27.48 1.986v8.744l-5.368 1.243v2.565l7.45-1.725v-8.744c.002-1.794-1.066-3.324-2.562-4.07z"/><path d="M276.656 76.052c.298.602.48 1.27.48 1.985v16.197c0 2.463-2.094 4.557-4.557 4.557h-11.086a4.47 4.47 0 01-1.987-.48c.744 1.497 2.274 2.565 4.07 2.565h11.085c2.463 0 4.557-2.094 4.557-4.557V80.12c0-1.794-1.067-3.324-2.564-4.068zm-12.329-12.98V73.48h2.083v-8.324h3.276v-2.084m28.331 17.798h-.678v17.92h-5.308v2.085h7.39V85.352m13.734-27.586h-2.752l-6.228 19.41 6.897 21.615h-6.006l.577 1.84.06.245h7.452l-6.897-21.615m24.277-21.495V98.79h-5.306v2.085h7.388v-43.11m29.043 25.173l5.716-5.717 2.084 2.084-5.715 5.717zm-351.986.015l5.717-5.717 2.085 2.084-5.717 5.717z"/></g><path fill="#fff" d="M55.65 68.967a4.47 4.47 0 01-1.663 3.51c.924.986 1.662 2.095 1.662 3.695v14.103c0 2.463-2.095 4.557-4.558 4.557H35.45V51.724h15.643c2.463 0 4.557 2.032 4.557 4.558v12.685zm-7.452-9.853H42.84v10.408h5.358V59.114zm0 17.798H42.84v10.47h5.358V76.91zm35.906-25.188c2.463 0 4.557 2.032 4.557 4.558v33.994c0 2.463-2.093 4.557-4.556 4.557H73.02c-2.526 0-4.56-2.094-4.56-4.557V56.282a4.549 4.549 0 014.56-4.558h11.084zm-2.895 7.39h-5.36V87.38h5.36V59.115zm33.503 35.718l-3.018-17.92h-2.833v17.92h-7.39V51.724h15.644c2.463 0 4.495 2.032 4.495 4.558v16.135a4.467 4.467 0 01-2.587 4.064l3.08 18.352h-7.39zm-.492-35.718h-5.358v10.408h5.358V59.114zm34.922-7.39c2.463 0 4.557 2.032 4.557 4.558v33.994c0 2.463-2.095 4.557-4.558 4.557h-11.086c-2.524 0-4.557-2.094-4.557-4.557V56.282a4.546 4.546 0 014.556-4.558h11.086zm-2.895 7.39h-5.358V87.38h5.357V59.115zm35.905-7.39c2.463 0 4.557 2.032 4.557 4.558v33.994c0 2.463-2.095 4.557-4.558 4.557H166.51v-43.11h15.642zm-2.894 7.39H173.9V87.38h5.358V59.115zm20.632-7.39h7.39v43.108h-7.39V51.724zm40.277 0v43.108h-7.39l-5.42-18.843V94.83h-7.39V51.724h7.328l5.42 17.675V51.723h7.452zm28.453 17.798c2.464 0 4.558 2.032 4.558 4.557v16.196c0 2.463-2.094 4.557-4.557 4.557h-11.084c-2.525 0-4.558-2.094-4.558-4.557V81.41l7.39-1.726v7.697h5.358V76.913h-8.19a4.548 4.548 0 01-4.558-4.558V56.282a4.548 4.548 0 014.558-4.558h11.085c2.464 0 4.558 2.032 4.558 4.558v8.744l-7.45 1.725v-7.636h-5.36v10.408h8.253zm31.596 3.695l6.897 21.615h-7.45l-.063-.246-5.543-17.674h-.678v17.92h-7.39V51.724h7.39v17.798h.554l5.666-17.798h7.513l-6.897 21.493zm18.971-21.493h7.39v43.108h-7.39V51.724z"/></g></svg>