<svg viewBox="0 0 142 139" fill="none" xmlns="http://www.w3.org/2000/svg"><path d="M72 21.38v-20.38a1 1 0 0 0-1-1 1 1 0 0 0-1 1v20.38h2Zm-26.12 6.95c.57-.35 1.15-.68 1.73-1l-10.26-17.63a1 1 0 0 0-1.74 1l10.27 17.63Zm-35.36 6.27a1 1 0 0 0 .37 1.35l17.73 10.23c.32-.58.65-1.15 1-1.72l-17.72-10.23a1 1 0 0 0-1.38.37Zm96.14-26.11a1.01 1.01 0 0 0-1.38.36l-10.82 18.52 1.73 1 10.83-18.52a1 1 0 0 0 .1-.76 1 1 0 0 0-.46-.6Zm25.43 27.04a.99.99 0 0 0 .5-1 1 1 0 0 0-1.13-.85 1 1 0 0 0-.38.13l-18.65 10.73c.34.55.67 1.13 1 1.72l18.66-10.73Zm-109.54 33.97v-1h-21.55a1 1 0 0 0-1 1 1 1 0 0 0 1 1h21.58c0-.33-.03-.66-.03-1Zm118.45-1h-21.58v2h21.58a1 1 0 0 0 1-1 1 1 0 0 0-1-1Zm-9.9 34.55-17.72-10.23c-.32.58-.65 1.15-1 1.72l17.72 10.23a1 1 0 0 0 1.42-1.24 1 1 0 0 0-.42-.48Zm-121.2.42a1 1 0 0 0-.49 1 1 1 0 0 0 .5.73 1 1 0 0 0 1 0l18.66-10.73c-.35-.56-.67-1.14-1-1.73l-18.67 10.73Zm86.22 7.2c-.57.35-1.15.68-1.74 1l10.26 17.63a1 1 0 0 0 .88.5 1 1 0 0 0 .86-1.5l-10.26-17.63Zm-61.15 18.48a1 1 0 0 0 1.13 1.46 1 1 0 0 0 .6-.46l10.84-18.52c-.6-.33-1.17-.65-1.73-1l-10.84 18.52Zm35.03-11.53v20.38a1 1 0 0 0 1 1 1 1 0 0 0 1-1v-20.38h-2Zm34.98-65.93a1.5 1.5 0 0 0 .17-2.48 1.5 1.5 0 0 0-1.67-.11l-28.5 16.39a5.67 5.67 0 0 0-8.01 0l-20.34-11.79a1.52 1.52 0 0 0-2.07.54 1.5 1.5 0 0 0 .54 2.05l20.41 11.78a5.6 5.6 0 0 0 2.52 6.2 5.7 5.7 0 0 0 8.65-4.77c0-.48-.07-.96-.2-1.42l28.5-16.4Zm-33.98 20.52a2.69 2.69 0 0 1-2.48-1.64 2.64 2.64 0 0 1 1.95-3.63 2.7 2.7 0 0 1 2.75 1.13c.3.44.45.95.45 1.48a2.65 2.65 0 0 1-2.67 2.61v.05Z" fill="#fff"/></svg>