<?xml version="1.0" encoding="utf-8"?><svg xmlns="http://www.w3.org/2000/svg" xmlns:xlink="http://www.w3.org/1999/xlink"><symbol viewBox="0 0 18 18" id="arrow-right" xmlns="http://www.w3.org/2000/svg"><path d="M3.75 9H14.25" stroke-width="1.125" stroke-linecap="round" stroke-linejoin="round"/><path d="M9.75 13.5L14.25 9" stroke-width="1.125" stroke-linecap="round" stroke-linejoin="round"/><path d="M9.75 4.5L14.25 9" stroke-width="1.125" stroke-linecap="round" stroke-linejoin="round"/></symbol><symbol viewBox="0 0 24 24" id="burger-menu" xmlns="http://www.w3.org/2000/svg"><path d="M7 8H17M7 12H17M7 16H17" stroke-width="1.5" stroke-linecap="round"/></symbol><symbol viewBox="0 0 19 18" id="chevron-down" xmlns="http://www.w3.org/2000/svg"><path d="M5.20435 6.75L9.70435 11.25L14.2043 6.75" stroke-width="1.125" stroke-linecap="round" stroke-linejoin="round"/></symbol><symbol viewBox="0 0 20 20" id="close" xmlns="http://www.w3.org/2000/svg"><path fill-rule="evenodd" clip-rule="evenodd" d="M15.4419 5.44194C15.686 5.19786 15.686 4.80214 15.4419 4.55806C15.1979 4.31398 14.8021 4.31398 14.5581 4.55806L10 9.11612L5.44194 4.55806C5.19786 4.31398 4.80214 4.31398 4.55806 4.55806C4.31398 4.80214 4.31398 5.19786 4.55806 5.44194L9.11612 10L4.55806 14.5581C4.31398 14.8021 4.31398 15.1979 4.55806 15.4419C4.80214 15.686 5.19786 15.686 5.44194 15.4419L10 10.8839L14.5581 15.4419C14.8021 15.686 15.1979 15.686 15.4419 15.4419C15.686 15.1979 15.686 14.8021 15.4419 14.5581L10.8839 10L15.4419 5.44194Z"/></symbol><symbol viewBox="0 0 24 24" id="close-nav" xmlns="http://www.w3.org/2000/svg"><path fill-rule="evenodd" clip-rule="evenodd" d="M5.29289 5.29289C5.68342 4.90237 6.31658 4.90237 6.70711 5.29289L12 10.5858L17.2929 5.29289C17.6834 4.90237 18.3166 4.90237 18.7071 5.29289C19.0976 5.68342 19.0976 6.31658 18.7071 6.70711L13.4142 12L18.7071 17.2929C19.0976 17.6834 19.0976 18.3166 18.7071 18.7071C18.3166 19.0976 17.6834 19.0976 17.2929 18.7071L12 13.4142L6.70711 18.7071C6.31658 19.0976 5.68342 19.0976 5.29289 18.7071C4.90237 18.3166 4.90237 17.6834 5.29289 17.2929L10.5858 12L5.29289 6.70711C4.90237 6.31658 4.90237 5.68342 5.29289 5.29289Z"/></symbol><symbol viewBox="0 0 24 24" id="email" xmlns="http://www.w3.org/2000/svg"><path fill-rule="evenodd" clip-rule="evenodd" d="M4.07663 6.53075C4.23287 6.01858 4.70913 5.646 5.27242 5.646H19.2724C19.8357 5.646 20.312 6.01858 20.4682 6.53075L12.2724 11.9946L4.07663 6.53075ZM2.52245 6.88226C2.52231 6.89026 2.5223 6.89826 2.52242 6.90625V16.896C2.52242 18.4148 3.75364 19.646 5.27242 19.646H19.2724C20.7912 19.646 22.0224 18.4148 22.0224 16.896V6.90622M20.5224 8.29738V16.896C20.5224 17.5864 19.9628 18.146 19.2724 18.146H5.27242C4.58206 18.146 4.02242 17.5864 4.02242 16.896V8.29738L11.8564 13.52C12.1083 13.688 12.4365 13.688 12.6884 13.52L20.5224 8.29738ZM22.0224 6.88229C22.015 5.36981 20.7866 4.146 19.2724 4.146H5.27242C3.75822 4.146 2.52985 5.3698 2.52245 6.88226"/></symbol><symbol viewBox="0 0 20 20" id="favorites" xmlns="http://www.w3.org/2000/svg"><path fill-rule="evenodd" clip-rule="evenodd" d="M10.577 5.76422C10.2546 6.07365 9.74548 6.07365 9.42304 5.76422L8.84604 5.2105C8.17068 4.56239 7.25832 4.16667 6.25004 4.16667C4.17897 4.16667 2.50004 5.8456 2.50004 7.91667C2.50004 9.90219 3.57486 11.5417 5.1265 12.8888C6.67947 14.237 8.53621 15.1312 9.64558 15.5876C9.87754 15.683 10.1225 15.683 10.3545 15.5876C11.4639 15.1312 13.3206 14.237 14.8736 12.8888C16.4252 11.5417 17.5 9.90218 17.5 7.91667C17.5 5.8456 15.8211 4.16667 13.75 4.16667C12.7418 4.16667 11.8294 4.56239 11.154 5.2105L10.577 5.76422ZM10 4.00798C9.0268 3.074 7.70545 2.5 6.25004 2.5C3.2585 2.5 0.833374 4.92512 0.833374 7.91667C0.833374 13.2235 6.64199 16.1542 9.01153 17.1289C9.64968 17.3914 10.3504 17.3914 10.9885 17.1289C13.3581 16.1542 19.1667 13.2235 19.1667 7.91667C19.1667 4.92512 16.7416 2.5 13.75 2.5C12.2946 2.5 10.9733 3.074 10 4.00798Z"/></symbol><symbol viewBox="0 0 24 25" id="heart" xmlns="http://www.w3.org/2000/svg"><path fill-rule="evenodd" clip-rule="evenodd" d="M12.6924 7.58373C12.3055 7.95505 11.6945 7.95505 11.3076 7.58373L10.6152 6.91927C9.80477 6.14154 8.70994 5.66667 7.5 5.66667C5.01472 5.66667 3 7.68139 3 10.1667C3 12.5493 4.28979 14.5167 6.15176 16.1332C8.01532 17.7511 10.2434 18.8241 11.5746 19.3717C11.853 19.4862 12.147 19.4862 12.4254 19.3717C13.7566 18.8241 15.9847 17.7511 17.8482 16.1332C19.7102 14.5167 21 12.5493 21 10.1667C21 7.68139 18.9853 5.66667 16.5 5.66667C15.2901 5.66667 14.1952 6.14154 13.3848 6.91927L12.6924 7.58373ZM12 5.47624C10.8321 4.35548 9.24649 3.66667 7.5 3.66667C3.91015 3.66667 1 6.57682 1 10.1667C1 16.5349 7.97034 20.0517 10.8138 21.2214C11.5796 21.5364 12.4204 21.5364 13.1862 21.2214C16.0297 20.0517 23 16.5349 23 10.1667C23 6.57682 20.0899 3.66667 16.5 3.66667C14.7535 3.66667 13.1679 4.35548 12 5.47624Z"/></symbol><symbol viewBox="0 0 24 24" id="search" xmlns="http://www.w3.org/2000/svg"><path d="M18.5 18.5L22 22M21 11.5C21 6.25329 16.7467 2 11.5 2C6.25329 2 2 6.25329 2 11.5C2 16.7467 6.25329 21 11.5 21C16.7467 21 21 16.7467 21 11.5Z" stroke-width="1.5" stroke-linecap="round" stroke-linejoin="round"/></symbol><symbol viewBox="0 0 24 24" id="shopping_bag" xmlns="http://www.w3.org/2000/svg"><path d="M9 6L9 7C9 8.65685 10.3431 10 12 10C13.6569 10 15 8.65685 15 7V6" stroke-width="1.5" stroke-linecap="round" stroke-linejoin="round"/><path d="M15.6116 3H8.3886C6.43325 3 4.76449 4.41365 4.44303 6.3424L2.77636 16.3424C2.37001 18.7805 4.25018 21 6.72194 21H17.2783C19.75 21 21.6302 18.7805 21.2238 16.3424L19.5572 6.3424C19.2357 4.41365 17.5669 3 15.6116 3Z" stroke-width="1.5" stroke-linejoin="round"/></symbol><symbol viewBox="0 0 24 24" id="socials--telegram" xmlns="http://www.w3.org/2000/svg"><path fill-rule="evenodd" clip-rule="evenodd" d="M5.78754 14.0196C5.83131 14.0344 5.87549 14.0448 5.91963 14.0512C5.96777 14.1644 6.02996 14.3107 6.10252 14.4818C6.27959 14.8994 6.51818 15.4643 6.76446 16.0535C7.2667 17.2552 7.77332 18.4939 7.88521 18.8485C8.02372 19.2868 8.17013 19.5848 8.32996 19.7883C8.4126 19.8935 8.50819 19.9853 8.62003 20.0549C8.67633 20.0899 8.7358 20.1186 8.79788 20.14C8.80062 20.141 8.80335 20.1419 8.80608 20.1428C9.1261 20.2636 9.41786 20.2133 9.60053 20.1518C9.69827 20.1188 9.77735 20.0791 9.8334 20.0469C9.86198 20.0304 9.88612 20.0151 9.90538 20.0021L9.90992 19.9991L12.7361 18.2366L16.0007 20.7394C16.0488 20.7763 16.1014 20.8073 16.157 20.8316C16.5492 21.0027 16.929 21.0624 17.2862 21.0136C17.6429 20.9649 17.926 20.8151 18.1368 20.6464C18.3432 20.4813 18.4832 20.2963 18.5703 20.1589C18.6148 20.0887 18.6482 20.0266 18.6718 19.9791C18.6836 19.9552 18.6931 19.9346 18.7005 19.9181L18.7099 19.8963L18.7135 19.8877L18.715 19.8841L18.7156 19.8824L18.7163 19.8808C18.7334 19.8379 18.7466 19.7935 18.7556 19.7482L21.7358 4.72274C21.7453 4.67469 21.7501 4.62581 21.7501 4.57682C21.7501 4.13681 21.5843 3.71841 21.1945 3.46452C20.8613 3.24752 20.4901 3.23818 20.2556 3.25598C20.0025 3.27519 19.7688 3.33766 19.612 3.38757C19.5304 3.41355 19.4619 3.43861 19.4126 3.45773C19.3878 3.46734 19.3675 3.47559 19.3523 3.48188L19.341 3.48666L2.62725 10.0432L2.62509 10.044C2.61444 10.0479 2.60076 10.053 2.58451 10.0593C2.55215 10.0719 2.50878 10.0896 2.45813 10.1126C2.35935 10.1574 2.22077 10.2273 2.07856 10.3247C1.85137 10.4803 1.32888 10.9064 1.41686 11.6097C1.48705 12.1708 1.87143 12.5154 2.10562 12.6811C2.23421 12.7721 2.35638 12.8371 2.44535 12.8795C2.48662 12.8991 2.57232 12.9339 2.6095 12.9491L2.61889 12.9529L5.78754 14.0196ZM19.9259 4.86786L19.9236 4.86888C19.9152 4.8725 19.9069 4.87596 19.8984 4.87928L3.1644 11.4438C3.15566 11.4472 3.14686 11.4505 3.138 11.4536L3.12869 11.4571C3.11798 11.4613 3.09996 11.4686 3.07734 11.4788C3.06451 11.4846 3.05112 11.491 3.03747 11.4978C3.05622 11.5084 3.07417 11.5175 3.09012 11.5251C3.10543 11.5324 3.11711 11.5374 3.1235 11.54L6.26613 12.598C6.32365 12.6174 6.37727 12.643 6.42649 12.674L16.8033 6.59948L16.813 6.59374C16.8205 6.58927 16.8305 6.58353 16.8424 6.5768C16.866 6.56345 16.8984 6.54568 16.937 6.52603C17.009 6.48938 17.1243 6.43497 17.2541 6.39485C17.3444 6.36692 17.6109 6.28823 17.899 6.38064C18.0768 6.43767 18.2609 6.56028 18.3807 6.76798C18.4401 6.87117 18.4718 6.97483 18.4872 7.06972C18.528 7.2192 18.5215 7.36681 18.4896 7.49424C18.4208 7.76875 18.228 7.98287 18.0525 8.14665C17.9021 8.28706 15.9567 10.1629 14.0376 12.0147C13.0805 12.9381 12.1333 13.8525 11.4252 14.5359L10.9602 14.9849L16.8321 19.4867C16.9668 19.5349 17.0464 19.5325 17.0832 19.5274C17.1271 19.5214 17.163 19.5045 17.1997 19.4752C17.2407 19.4424 17.2766 19.398 17.3034 19.3557L17.3045 19.354L20.195 4.78102C20.1521 4.79133 20.1087 4.80361 20.0669 4.81691C20.0196 4.83198 19.9805 4.84634 19.9547 4.85637C19.9418 4.86134 19.9326 4.86511 19.9276 4.86719L19.9259 4.86786ZM11.4646 17.2618L10.2931 16.3636L10.0093 18.1693L11.4646 17.2618ZM9.21846 14.5814L10.3834 13.4567C11.0915 12.7732 12.0389 11.8588 12.9961 10.9352L13.9686 9.997L7.44853 13.8138L7.48351 13.8963C7.66121 14.3154 7.90087 14.8827 8.14845 15.4751C8.33358 15.918 8.52717 16.3844 8.70349 16.8162L8.98653 15.0158C9.01381 14.8422 9.09861 14.692 9.21846 14.5814Z"/></symbol><symbol viewBox="0 0 24 24" id="socials--vk" xmlns="http://www.w3.org/2000/svg"><path fill-rule="evenodd" clip-rule="evenodd" d="M23.405 16.865C22.8611 15.7695 22.1444 14.7688 21.2825 13.9013C20.9892 13.5603 20.6453 13.2238 20.3768 12.9612L20.3393 12.9245C20.2008 12.7889 20.0864 12.6764 19.9928 12.5795C21.1713 10.9407 22.18 9.18595 23.003 7.34222L23.0362 7.26783L23.0595 7.18976C23.1676 6.82687 23.2922 6.1368 22.8515 5.51317C22.396 4.86859 21.6666 4.75234 21.1782 4.75234H18.9311C18.4627 4.73087 17.9988 4.85751 17.6058 5.11498C17.2098 5.37439 16.9069 5.75278 16.7402 6.1951C16.2563 7.34779 15.6508 8.4442 14.9347 9.46598V6.83269C14.9347 6.4923 14.9027 5.92289 14.5382 5.44229C14.1018 4.86685 13.4707 4.75234 13.0326 4.75234H9.46708C9.00771 4.74172 8.56094 4.90597 8.2176 5.21259C7.866 5.52659 7.65052 5.96521 7.61687 6.43543L7.61369 6.47997V6.52463C7.61369 7.01011 7.80606 7.36822 7.95975 7.59344C8.02856 7.69427 8.10216 7.78606 8.14865 7.84403L8.15938 7.85741C8.20895 7.91923 8.24204 7.96049 8.27525 8.00566C8.3626 8.12448 8.48824 8.30768 8.52379 8.78174V10.2547C7.9091 9.24423 7.26066 7.89957 6.77276 6.46344L6.76527 6.4414L6.75697 6.41965C6.63532 6.10103 6.4402 5.63743 6.04941 5.28266C5.59288 4.86821 5.0529 4.75234 4.56182 4.75234H2.28187C1.78506 4.75234 1.18613 4.86857 0.739237 5.33999C0.299773 5.80358 0.25 6.35907 0.25 6.65442V6.78755L0.278039 6.91769C0.909544 9.84881 2.21076 12.5937 4.07946 14.9377C4.92668 16.2737 6.07468 17.3936 7.43213 18.2075C8.81124 19.0345 10.3671 19.5219 11.9715 19.6297L12.0133 19.6325H12.0553C12.7811 19.6325 13.5378 19.5699 14.1068 19.1907C14.8744 18.6792 14.9347 17.8936 14.9347 17.5021V16.3642C15.1317 16.5234 15.3761 16.7378 15.6753 17.0259C16.037 17.3879 16.325 17.7016 16.572 17.9754L16.7038 18.122L16.7046 18.1228C16.8964 18.3364 17.0852 18.5467 17.2571 18.7195C17.4732 18.9367 17.7396 19.1761 18.0745 19.3529C18.4371 19.5444 18.8177 19.631 19.222 19.631H21.5035C21.9841 19.631 22.6735 19.5173 23.1582 18.9554C23.6864 18.343 23.6461 17.5924 23.48 17.053L23.4501 16.956L23.405 16.865ZM17.6857 16.9706C17.4289 16.6859 17.1192 16.3484 16.7278 15.9571L16.7246 15.9539C15.3685 14.6464 14.7348 14.4186 14.2868 14.4186C14.0485 14.4186 13.7848 14.4454 13.6137 14.6585C13.5329 14.7591 13.4905 14.8805 13.4667 15.007C13.4429 15.1333 13.4347 15.2816 13.4347 15.4505V17.5021C13.4347 17.7569 13.3928 17.8639 13.275 17.9425C13.118 18.0471 12.7825 18.1319 12.0637 18.1325C10.6993 18.0395 9.37641 17.6244 8.20349 16.9211C7.02817 16.2164 6.03709 15.2425 5.31187 14.0797L5.30398 14.0671L5.29464 14.0554C3.55337 11.8881 2.34003 9.34571 1.7503 6.6291C1.7535 6.49814 1.78187 6.42045 1.82784 6.37195C1.87521 6.32198 1.98999 6.25234 2.28187 6.25234H4.56182C4.81544 6.25234 4.9467 6.30751 5.04117 6.39327C5.14827 6.4905 5.24116 6.65561 5.35401 6.95042C5.91362 8.5964 6.67038 10.1357 7.387 11.2675C7.74518 11.8332 8.09769 12.3041 8.41529 12.6368C8.57383 12.803 8.72932 12.9406 8.8777 13.0385C9.02132 13.1332 9.18414 13.2079 9.35158 13.2079C9.43994 13.2079 9.54328 13.1988 9.64279 13.1547C9.74983 13.1074 9.83291 13.0284 9.89158 12.9225C9.99536 12.7353 10.0238 12.458 10.0238 12.0947V8.73099L10.0233 8.7231C9.97146 7.90476 9.72439 7.44443 9.48381 7.11718C9.43108 7.04546 9.37909 6.98068 9.33359 6.92399L9.32113 6.90846C9.27117 6.84616 9.23142 6.79582 9.19876 6.74795C9.13891 6.66024 9.11571 6.59909 9.11381 6.53356C9.12162 6.45578 9.15828 6.38361 9.21675 6.33139C9.27744 6.27719 9.35686 6.24897 9.43816 6.25234H13.0326C13.2387 6.25234 13.3081 6.30262 13.343 6.34868C13.3923 6.4137 13.4347 6.54893 13.4347 6.83269V11.3613C13.4347 11.8992 13.6827 12.2634 14.0428 12.2634C14.4572 12.2634 14.7559 12.012 15.2783 11.4896L15.287 11.4809L15.2948 11.4713C16.4656 10.0436 17.4225 8.45298 18.1347 6.74943L18.1392 6.73666C18.1928 6.58613 18.2941 6.45726 18.4278 6.3697C18.5614 6.28215 18.72 6.24072 18.8794 6.25175L18.8881 6.25234H21.1782C21.4905 6.25234 21.5933 6.33183 21.6265 6.37884C21.6618 6.42885 21.6864 6.53604 21.6264 6.74625C20.8053 8.58266 19.7899 10.3258 18.598 11.9464L18.5905 11.9578C18.4748 12.1348 18.3479 12.3306 18.3295 12.5554C18.3098 12.7968 18.4143 13.0163 18.597 13.2515C18.7302 13.4484 19.0049 13.7173 19.2836 13.9901L19.3099 14.0158C19.6021 14.3018 19.9186 14.6116 20.1727 14.9116L20.1795 14.9195L20.1869 14.9269C20.9444 15.6825 21.5743 16.556 22.052 17.5132C22.1283 17.7738 22.0816 17.907 22.0223 17.9757C21.953 18.0561 21.7976 18.131 21.5035 18.131H19.222C19.0438 18.131 18.9063 18.0959 18.7749 18.0265C18.638 17.9542 18.4972 17.8392 18.3206 17.6617C18.1784 17.5187 18.023 17.3457 17.8334 17.1348C17.7864 17.0825 17.7373 17.0277 17.6857 16.9706Z"/></symbol><symbol viewBox="0 0 24 24" id="socials--youtube" xmlns="http://www.w3.org/2000/svg"><path fill-rule="evenodd" clip-rule="evenodd" d="M10.3859 8.35691C10.1542 8.21789 9.86561 8.21425 9.63048 8.34738C9.39534 8.48051 9.25 8.72983 9.25 9.00003V15C9.25 15.2702 9.39534 15.5196 9.63048 15.6527C9.86561 15.7858 10.1542 15.7822 10.3859 15.6432L15.3859 12.6432C15.6118 12.5076 15.75 12.2635 15.75 12C15.75 11.7366 15.6118 11.4925 15.3859 11.3569L10.3859 8.35691ZM13.5423 12L10.75 13.6754V10.3247L13.5423 12Z"/><path fill-rule="evenodd" clip-rule="evenodd" d="M17.0307 4.64131C13.682 4.37933 10.318 4.37933 6.96938 4.64131L4.72868 4.81661C3.36612 4.92321 2.25143 5.94442 2.02619 7.29246C1.50543 10.4092 1.50543 13.5908 2.02619 16.7076C2.25143 18.0556 3.36612 19.0768 4.72868 19.1834L6.96938 19.3587C10.318 19.6207 13.682 19.6207 17.0307 19.3587L19.2714 19.1834C20.6339 19.0768 21.7486 18.0556 21.9739 16.7076C22.4946 13.5908 22.4946 10.4092 21.9739 7.29246C21.7486 5.94442 20.6339 4.92321 19.2714 4.81661L17.0307 4.64131ZM7.08638 6.13674C10.3572 5.88085 13.6429 5.88085 16.9137 6.13674L19.1544 6.31204C19.83 6.3649 20.3827 6.87125 20.4944 7.53966C20.9878 10.4928 20.9878 13.5073 20.4944 16.4604C20.3827 17.1288 19.83 17.6352 19.1544 17.688L16.9137 17.8633C13.6429 18.1192 10.3571 18.1192 7.08638 17.8633L4.84568 17.688C4.17007 17.6352 3.61736 17.1288 3.50568 16.4604C3.01227 13.5073 3.01227 10.4928 3.50568 7.53966C3.61736 6.87125 4.17007 6.3649 4.84568 6.31204L7.08638 6.13674Z"/></symbol><symbol viewBox="0 0 14 14" id="star" xmlns="http://www.w3.org/2000/svg"><path d="M6.53834 1.10997C6.70914 0.699319 7.29086 0.699318 7.46166 1.10996L8.99874 4.80556C9.07075 4.97868 9.23355 5.09696 9.42045 5.11194L13.4102 5.4318C13.8535 5.46734 14.0332 6.02059 13.6955 6.30993L10.6557 8.91378C10.5133 9.03576 10.4512 9.22715 10.4947 9.40952L11.4234 13.3028C11.5265 13.7354 11.0559 14.0773 10.6764 13.8455L7.26063 11.7592C7.10062 11.6615 6.89938 11.6615 6.73937 11.7592L3.32363 13.8455C2.94408 14.0773 2.47345 13.7354 2.57665 13.3028L3.50534 9.40952C3.54884 9.22715 3.48665 9.03576 3.34426 8.91378L0.304527 6.30993C-0.0332418 6.02059 0.14652 5.46734 0.589847 5.4318L4.57955 5.11194C4.76645 5.09696 4.92925 4.97868 5.00126 4.80556L6.53834 1.10997Z"/></symbol><symbol viewBox="0 0 24 24" id="ticket-percent" xmlns="http://www.w3.org/2000/svg"><path d="M21.0181 14.8356L20.7727 15.5444H20.7727L21.0181 14.8356ZM21.0181 9.16437L21.2635 9.8731V9.8731L21.0181 9.16437ZM2.98189 14.8356L3.22727 15.5444H3.22727L2.98189 14.8356ZM2.98189 9.16437L2.73652 9.8731L2.73652 9.8731L2.98189 9.16437ZM15.5303 9.53033C15.8232 9.23744 15.8232 8.76256 15.5303 8.46967C15.2374 8.17678 14.7626 8.17678 14.4697 8.46967L15.5303 9.53033ZM8.46967 14.4697C8.17678 14.7626 8.17678 15.2374 8.46967 15.5303C8.76256 15.8232 9.23744 15.8232 9.53033 15.5303L8.46967 14.4697ZM6 20.25C4.20507 20.25 2.75 18.7949 2.75 17H1.25C1.25 19.6234 3.37665 21.75 6 21.75V20.25ZM21.25 17C21.25 18.7949 19.7949 20.25 18 20.25V21.75C20.6234 21.75 22.75 19.6234 22.75 17H21.25ZM18 3.75C19.7949 3.75 21.25 5.20507 21.25 7H22.75C22.75 4.37665 20.6234 2.25 18 2.25V3.75ZM6 2.25C3.37665 2.25 1.25 4.37665 1.25 7H2.75C2.75 5.20507 4.20507 3.75 6 3.75V2.25ZM21.2635 14.1269C20.3815 13.8216 19.75 12.9836 19.75 12H18.25C18.25 13.6424 19.3054 15.0363 20.7727 15.5444L21.2635 14.1269ZM19.75 12C19.75 11.0164 20.3815 10.1784 21.2635 9.8731L20.7727 8.45565C19.3054 8.96367 18.25 10.3576 18.25 12H19.75ZM4.25 12C4.25 12.9836 3.61845 13.8216 2.73652 14.1269L3.22727 15.5444C4.69461 15.0363 5.75 13.6424 5.75 12H4.25ZM2.73652 9.8731C3.61845 10.1784 4.25 11.0164 4.25 12H5.75C5.75 10.3576 4.69462 8.96367 3.22727 8.45565L2.73652 9.8731ZM22.75 8V7H21.25V8H22.75ZM21.25 16V17H22.75V16H21.25ZM1.25 16V17H2.75V16H1.25ZM2.75 8V7H1.25V8H2.75ZM18 20.25H6V21.75H18V20.25ZM18 2.25H6V3.75H18V2.25ZM2.73652 14.1269C2.05785 14.3619 1.25 14.9975 1.25 16H2.75C2.75 15.9441 2.77081 15.8708 2.85172 15.7813C2.9366 15.6873 3.06974 15.5989 3.22727 15.5444L2.73652 14.1269ZM21.2635 9.8731C21.9422 9.63813 22.75 9.00246 22.75 8H21.25C21.25 8.05587 21.2292 8.12917 21.1483 8.21871C21.0634 8.31265 20.9303 8.40111 20.7727 8.45565L21.2635 9.8731ZM3.22727 8.45565C3.06974 8.40111 2.9366 8.31265 2.85172 8.21871C2.77081 8.12917 2.75 8.05587 2.75 8H1.25C1.25 9.00246 2.05785 9.63813 2.73652 9.8731L3.22727 8.45565ZM20.7727 15.5444C20.9303 15.5989 21.0634 15.6873 21.1483 15.7813C21.2292 15.8708 21.25 15.9441 21.25 16H22.75C22.75 14.9975 21.9422 14.3619 21.2635 14.1269L20.7727 15.5444ZM9.25 9C9.25 9.13807 9.13807 9.25 9 9.25V10.75C9.9665 10.75 10.75 9.9665 10.75 9H9.25ZM9 9.25C8.86193 9.25 8.75 9.13807 8.75 9H7.25C7.25 9.9665 8.0335 10.75 9 10.75V9.25ZM8.75 9C8.75 8.86193 8.86193 8.75 9 8.75V7.25C8.0335 7.25 7.25 8.0335 7.25 9H8.75ZM9 8.75C9.13807 8.75 9.25 8.86193 9.25 9H10.75C10.75 8.0335 9.9665 7.25 9 7.25V8.75ZM15.25 15C15.25 15.1381 15.1381 15.25 15 15.25V16.75C15.9665 16.75 16.75 15.9665 16.75 15H15.25ZM15 15.25C14.8619 15.25 14.75 15.1381 14.75 15H13.25C13.25 15.9665 14.0335 16.75 15 16.75V15.25ZM14.75 15C14.75 14.8619 14.8619 14.75 15 14.75V13.25C14.0335 13.25 13.25 14.0335 13.25 15H14.75ZM15 14.75C15.1381 14.75 15.25 14.8619 15.25 15H16.75C16.75 14.0335 15.9665 13.25 15 13.25V14.75ZM14.4697 8.46967L8.46967 14.4697L9.53033 15.5303L15.5303 9.53033L14.4697 8.46967Z"/></symbol><symbol viewBox="0 0 24 24" id="user" xmlns="http://www.w3.org/2000/svg"><path d="M18.5588 19.5488C17.5654 16.8918 15.0036 15 12 15C8.99638 15 6.4346 16.8918 5.44117 19.5488M18.5588 19.5488C20.6672 17.7154 22 15.0134 22 12C22 6.47715 17.5228 2 12 2C6.47715 2 2 6.47715 2 12C2 15.0134 3.33285 17.7154 5.44117 19.5488M18.5588 19.5488C16.8031 21.0756 14.5095 22 12 22C9.49052 22 7.19694 21.0756 5.44117 19.5488M15 9C15 10.6569 13.6569 12 12 12C10.3431 12 9 10.6569 9 9C9 7.34315 10.3431 6 12 6C13.6569 6 15 7.34315 15 9Z" stroke-width="1.5" stroke-linejoin="round"/></symbol><symbol viewBox="0 0 48 48" id="values--call" xmlns="http://www.w3.org/2000/svg"><path d="M42 38V34.7081C42 33.0725 41.0042 31.6017 39.4856 30.9942L35.4173 29.3669C33.4857 28.5943 31.2844 29.4312 30.354 31.292L30 32C30 32 25 31 21 27C17 23 16 18 16 18L16.708 17.646C18.5688 16.7156 19.4057 14.5143 18.6331 12.5827L17.0058 8.51444C16.3983 6.99581 14.9275 6 13.2919 6H10C7.79086 6 6 7.79086 6 10C6 27.6731 20.3269 42 38 42C40.2091 42 42 40.2091 42 38Z" stroke-width="2.5" stroke-linejoin="round"/></symbol><symbol viewBox="0 0 48 48" id="values--finance" xmlns="http://www.w3.org/2000/svg"><rect x="4" y="8" width="40" height="32" rx="4" stroke-width="2.5"/><circle cx="4" cy="4" r="4" transform="matrix(1 0 0 -1 20 28)" stroke-width="2.5"/><circle cx="2" cy="2" r="2" transform="matrix(1 0 0 -1 34 26)"/><circle cx="2" cy="2" r="2" transform="matrix(1 0 0 -1 10 26)"/></symbol><symbol viewBox="0 0 48 48" id="values--lock" xmlns="http://www.w3.org/2000/svg"><path d="M32 16H16M32 16C36.4183 16 40 19.5817 40 24V36C40 40.4183 36.4183 44 32 44H16C11.5817 44 8 40.4183 8 36V24C8 19.5817 11.5817 16 16 16M32 16V12C32 7.58172 28.4183 4 24 4C19.5817 4 16 7.58172 16 12V16M24 32V28" stroke-width="2.5" stroke-linecap="round"/></symbol><symbol viewBox="0 0 48 48" id="values--shipping" xmlns="http://www.w3.org/2000/svg"><path d="M28 38V14M28 38H32M28 38H18M28 14C28 9.58172 24.4183 6 20 6H12C7.58172 6 4 9.58172 4 14V30C4 33.7304 6.55333 36.8645 10.0077 37.7499M28 14H34.4182C35.4344 14 36.4126 14.3868 37.154 15.0819L42.7358 20.3148C43.5424 21.071 44 22.1273 44 23.2329V34C44 36.2091 42.2091 38 40 38M40 38C40 40.2091 38.2091 42 36 42C33.7909 42 32 40.2091 32 38M40 38C40 35.7909 38.2091 34 36 34C33.7909 34 32 35.7909 32 38M18 38C18 40.2091 16.2091 42 14 42C11.7909 42 10 40.2091 10 38C10 37.916 10.0026 37.8326 10.0077 37.7499M18 38C18 35.7909 16.2091 34 14 34C11.8748 34 10.1368 35.6573 10.0077 37.7499" stroke-width="2.5"/><path d="M20 16H16" stroke-width="2.5" stroke-linecap="round" stroke-linejoin="round"/><path d="M20 24H12" stroke-width="2.5" stroke-linecap="round" stroke-linejoin="round"/></symbol></svg>