<svg width="152" height="152" fill="none" xmlns="http://www.w3.org/2000/svg"><path fill-rule="evenodd" clip-rule="evenodd" d="m76.39 0-2.01.03.18 11.2 2.01-.04L76.39 0Zm-9.6 6.3-.95-1.86h-.08l.48 1.9.64 5.5-1.9.22L63.7.86l1.54-.18 3.84 5.22.9 1.84.1-.01-.48-1.86-.64-5.54L70.84.1l1.3 11.2-1.54.17-3.8-5.17Zm17.38 5.43c.47-.06.85-.2 1.15-.41l-.25-1.72a3.8 3.8 0 0 1-.75.3c-.27.07-.6.09-.96.06a2 2 0 0 1-1.07-.39 2.23 2.23 0 0 1-.67-.88c-.17-.36-.28-.8-.32-1.28a8.79 8.79 0 0 1 0-1.62 5.9 5.9 0 0 1 .86-2.94c.45-.6 1.04-.87 1.77-.8.37.03.69.09.95.17.27.08.5.18.69.3L86.12.8a6.47 6.47 0 0 0-2.27-.62c-.5-.04-1.02 0-1.53.14-.52.14-.99.41-1.41.82-.43.4-.8.97-1.1 1.69-.3.72-.5 1.64-.6 2.77-.1 1.08-.08 2 .07 2.77.15.76.38 1.39.71 1.88.34.49.74.85 1.22 1.1.47.23 1 .38 1.57.43.45.04.92.03 1.39-.04Zm5.12-10.62 5.46 1.17-.38 1.81-3.5-.75-.57 2.7 3.17.67-.39 1.82-3.17-.68-.6 2.82 3.57.75-.39 1.82-5.53-1.18 2.33-10.95Zm15.92 6.71 2.44 1 .7-1.7-6.74-2.8-.71 1.72 2.45 1.01-3.55 8.64 1.86.77 3.55-8.64Zm4.26 6.2c-.28.49-.51.96-.7 1.4-.19.46-.3.88-.35 1.26-.05.38-.02.71.08 1 .1.3.3.52.59.7.53.3 1.1.26 1.67-.13a7.27 7.27 0 0 0 1.9-2.4c.28-.46.5-.93.7-1.38.18-.45.3-.87.35-1.25.06-.38.03-.72-.07-1.02-.1-.3-.3-.53-.6-.7-1.06-.62-2.25.22-3.57 2.52Zm-1.83-1.06c.95-1.64 1.95-2.73 3-3.27 1.06-.53 2.17-.47 3.32.2a3.32 3.32 0 0 1 1.83 2.87c.03.6-.07 1.25-.3 1.95-.22.7-.55 1.43-1 2.2-.94 1.65-1.94 2.73-3.02 3.26a3.34 3.34 0 0 1-3.3-.2 3.7 3.7 0 0 1-1.36-1.24 3.33 3.33 0 0 1-.48-1.62c-.02-.6.08-1.25.3-1.95.24-.7.57-1.43 1.01-2.2Zm19.6 11.37-1.62 1.42-3.9 4.25 1.48 1.37 7.57-8.25-1.4-1.28-4.87 2.06-1.23.8-.05-.04.66-1.29 1.56-5.15-1.42-1.3-7.57 8.24 1.4 1.29 3.91-4.27 1.24-1.8.07.07-.87 1.83-1.25 4.22.5.45 4-1.66 1.73-1.02.06.06Zm6 1.61 3.52 4.34-1.44 1.17-2.25-2.78-2.13 1.74 2.04 2.52-1.43 1.17-2.05-2.52-2.23 1.82 2.3 2.83-1.44 1.17-3.57-4.4 8.67-7.06Zm8.48 11.8-3-4.72-9.44 6 3.03 4.78 1.56-1-1.95-3.07 2.43-1.55 1.74 2.74 1.56-.99-1.74-2.74 2.33-1.47 1.91 3.02 1.57-1Zm2.84 9.84-1.13-2.39-8.42 4-.87-1.82 8.43-4-1.13-2.4 1.67-.8 3.13 6.61-1.68.8Zm3.81 4.94-6.02 4.71-4 1.07.5 1.95 4.04-1.07 7.55 1.11-.56-2.08-4.45-.4-1.25.16-.02-.08 1.14-.46 3.69-2.6-.62-2.31ZM145.53 65c-.56.07-1.07.17-1.54.3-.48.12-.88.28-1.2.48-.34.19-.59.41-.76.67-.17.25-.23.55-.19.88.08.62.45 1.04 1.12 1.26.66.23 1.68.25 3.05.07.54-.07 1.04-.16 1.52-.3.47-.12.87-.27 1.2-.46.34-.2.6-.42.77-.67.18-.26.24-.57.2-.92-.16-1.21-1.55-1.65-4.17-1.31Zm-.27-2.1c1.88-.24 3.35-.1 4.42.42 1.06.51 1.68 1.43 1.85 2.75a3.3 3.3 0 0 1-1.17 3.2c-.46.39-1.03.7-1.73.95-.69.24-1.47.42-2.35.54-1.88.24-3.35.1-4.42-.44a3.34 3.34 0 0 1-1.86-2.75 3.7 3.7 0 0 1 .18-1.83c.2-.53.53-.98 1-1.37.46-.38 1.03-.7 1.73-.93.7-.24 1.48-.42 2.35-.53Zm6.63 17.47.03-1.9-7.17-.12a3.6 3.6 0 0 1-1.8-.37c-.36-.23-.53-.6-.52-1.13 0-.54.18-.93.53-1.16.35-.22.96-.33 1.84-.32l7.17.12.03-2.02-7.52-.12c-1.3-.02-2.27.25-2.91.81-.65.56-.98 1.45-1 2.68-.01 1.04.3 1.87.94 2.47.64.6 1.68.91 3.13.94l7.25.12Zm-11 22.64 2.1.1.03-.06-1.87-.54-5.07-2.22.76-1.74 10.32 4.5-.62 1.43-6.43.7-2.05-.15-.04.09 1.85.53 5.1 2.23-.75 1.74-10.32-4.5.61-1.43 6.39-.68Zm.59 11.52 1-1.75-9.7-5.56-1 1.75 9.7 5.56Zm-14.24 1.97a2.6 2.6 0 0 1 .23-1.2c.18-.44.4-.85.67-1.22a4.3 4.3 0 0 1 1.17-1.14 3.2 3.2 0 0 1 1.55-.5c.59-.04 1.25.08 1.98.33.73.26 1.54.7 2.42 1.34a9.3 9.3 0 0 1 2.09 1.92c.47.63.77 1.23.9 1.8.14.58.14 1.12 0 1.63-.15.52-.37.98-.66 1.4a6.37 6.37 0 0 1-1.68 1.65l-1.22-1.36c.2-.1.41-.25.62-.43.2-.2.41-.44.63-.74.42-.6.49-1.25.2-1.94-.3-.7-1-1.43-2.1-2.22a8.88 8.88 0 0 0-1.4-.82c-.44-.21-.87-.33-1.27-.38-.4-.04-.77 0-1.1.14a2 2 0 0 0-.87.73c-.21.3-.35.6-.43.87a3.8 3.8 0 0 0-.12.8l-1.61-.66Zm3.05 12.71 3.76-4.14-8.27-7.53-3.8 4.19 1.36 1.24 2.45-2.7 2.13 1.94-2.18 2.4 1.37 1.25 2.18-2.4 2.03 1.85-2.4 2.65 1.37 1.25Zm-12.15 7.87 2.1-1.6-5.68-7.42 1.6-1.23 5.67 7.42 2.1-1.61 1.13 1.47-5.8 4.44-1.12-1.47Zm-6.25-2.35c.3.39.59.83.87 1.32 1.32 2.29 1.45 3.74.39 4.35-.3.18-.61.23-.92.17-.3-.06-.6-.21-.91-.45-.3-.24-.6-.55-.9-.94-.3-.39-.59-.82-.86-1.29a7.27 7.27 0 0 1-1.1-2.85c-.05-.7.2-1.2.73-1.51.3-.17.6-.23.9-.16.3.06.6.2.9.43.3.23.6.54.9.93Zm4.02 4.5c.06-1.18-.38-2.6-1.32-4.24-.45-.77-.91-1.42-1.4-1.97-.49-.55-1-.97-1.53-1.24a3.33 3.33 0 0 0-1.64-.4c-.56 0-1.15.2-1.76.54a3.34 3.34 0 0 0-1.82 2.77c-.08 1.2.35 2.61 1.3 4.26.44.77.9 1.42 1.4 1.97.5.54 1 .96 1.53 1.23a3.3 3.3 0 0 0 3.4-.14c1.16-.67 1.77-1.6 1.84-2.78Zm-21.38 4.9.42 2.12.07-.03v-2l.57-4.3.64-.2 3.02 3.2 1.14 1.67.09-.03-.93-1.97-1.71-5.53 1.81-.56 3.31 10.69-1.84.57-3.66-3.94-.78-1.21-.06.02.07 1.47-.67 5.24-1.81.57-3.31-10.7 1.92-.6 1.7 5.52Zm-9.54 7.35 5.52-.86-1.71-11.06-5.6.87.3 1.83 3.6-.56.43 2.85-3.2.5.28 1.83 3.2-.5.43 2.72-3.53.55.28 1.83Zm-3.33.31-5.58.21-.07-1.85 3.57-.14-.1-2.75-3.24.12-.07-1.85 3.24-.12-.1-2.88-3.64.14-.07-1.86 5.65-.2.41 11.18Zm-15.51-2.27 2.63.22.78-9.3 2 .16-.78 9.31 2.64.22-.15 1.85-7.28-.61.16-1.85Zm-6.16.82-1.05-7.58 1.09-4.01-1.94-.53-1.1 4.03-4.75 5.98 2.08.56 2.57-3.66.5-1.15.07.02-.16 1.21.38 4.5 2.31.63Zm-9.36-8.73c.22-.52.4-1.01.52-1.49.13-.47.2-.9.19-1.28 0-.38-.07-.7-.2-.98a1.25 1.25 0 0 0-.67-.62c-.57-.24-1.12-.12-1.65.34a7.28 7.28 0 0 0-1.6 2.6c-.2.5-.37 1-.5 1.47s-.2.9-.2 1.28c0 .39.06.72.2 1 .13.28.36.5.68.63 1.13.47 2.2-.5 3.23-2.95Zm1.94.82c-.73 1.75-1.59 2.96-2.57 3.62-.98.66-2.08.74-3.31.22a3.31 3.31 0 0 1-2.18-2.62c-.1-.6-.08-1.25.06-1.97.13-.72.37-1.5.71-2.31.74-1.75 1.6-2.96 2.6-3.61 1-.66 2.1-.73 3.3-.23a3.7 3.7 0 0 1 1.5 1.07c.35.45.58.97.68 1.56.1.59.08 1.24-.06 1.96a11.9 11.9 0 0 1-.73 2.31Zm-18.4-3.02 1.64.97 3.69-6.15c.42-.72.83-1.17 1.2-1.38.39-.2.8-.16 1.25.1.47.29.71.64.73 1.05.03.42-.19 1-.64 1.75l-3.68 6.16 1.72 1.04 3.87-6.46c.67-1.12.92-2.1.76-2.93-.16-.84-.77-1.57-1.82-2.2a3.14 3.14 0 0 0-2.6-.43c-.85.26-1.64 1-2.38 2.25l-3.73 6.23Zm-13.99-20.93-1.15 1.76.05.06 1.4-1.35 4.46-3.28 1.12 1.53-9.07 6.68-.92-1.25 2.63-5.92 1.15-1.7-.05-.08-1.38 1.33-4.5 3.3-1.12-1.52 9.07-6.68.92 1.25-2.61 5.87ZM9.93 113.2l1.01 1.74 9.67-5.61-1-1.75-9.68 5.62Zm5.44-13.33c.33.16.63.42.92.8.3.38.53.78.72 1.2.24.52.37 1.05.4 1.58a3.2 3.2 0 0 1-.36 1.6 5 5 0 0 1-1.28 1.54c-.59.5-1.38.98-2.36 1.43a9.33 9.33 0 0 1-2.71.84c-.78.1-1.45.05-2.01-.12a3.23 3.23 0 0 1-1.4-.83c-.38-.38-.67-.8-.88-1.27a6.5 6.5 0 0 1-.58-2.28L7.6 104c-.02.23 0 .48.06.75s.17.58.33.92c.3.67.82 1.05 1.57 1.14.74.1 1.74-.14 2.98-.7.53-.25 1-.51 1.4-.8.4-.28.73-.58.96-.9a2.01 2.01 0 0 0 .24-2.14 2.7 2.7 0 0 0-.53-.82c-.2-.2-.41-.37-.63-.5l1.38-1.07ZM2.86 96.1l1.68 5.34 10.66-3.37-1.7-5.4-1.77.56 1.1 3.48-2.74.86-.98-3.1-1.76.56.97 3.1-2.62.83-1.08-3.42-1.76.56ZM2.2 81.64l.33 2.61 9.25-1.16.25 2-9.25 1.16.32 2.64-1.83.23-.91-7.25 1.84-.23Zm5.16-4.26c-.49.05-1.01.08-1.58.07-2.64-.05-3.95-.68-3.93-1.9 0-.36.12-.65.33-.88.21-.23.5-.42.85-.55.36-.14.79-.24 1.27-.3.49-.05 1-.07 1.54-.07 1.39.03 2.4.2 3.01.52.63.32.93.79.92 1.4 0 .34-.1.63-.31.85-.21.23-.49.41-.84.56-.36.14-.78.24-1.26.3ZM1.44 78.5c.98.67 2.41 1.02 4.31 1.05.88.01 1.69-.05 2.4-.19A5.5 5.5 0 0 0 10 78.7c.52-.31.91-.71 1.19-1.2.28-.5.43-1.1.44-1.8a3.34 3.34 0 0 0-1.44-2.99c-.98-.68-2.42-1.04-4.31-1.07-.89-.01-1.69.05-2.4.2-.73.14-1.35.37-1.86.68a3.32 3.32 0 0 0-1.62 3c-.02 1.33.46 2.33 1.44 3Zm4.52-21.58 2.04.7 5.62 1.29.45-1.97-10.9-2.5-.42 1.85 4.2 3.21 1.3.68-.02.06-1.44.07-5.24 1.19-.43 1.88 10.9 2.5.42-1.85-5.63-1.3-2.17-.18.02-.1 2.01-.14 4.28-1 .15-.65L7.68 58l-1.74-1 .02-.08ZM4.41 50.9l2.03-5.22 1.73.68-1.3 3.34 2.55 1 1.18-3.03 1.73.68-1.18 3.02 2.68 1.05 1.32-3.4 1.73.67-2.06 5.28L4.41 50.9Zm6.07-13.2-2.63 4.94 9.86 5.27 2.66-4.99-1.63-.87-1.72 3.21-2.53-1.35 1.53-2.87-1.64-.87-1.53 2.86-2.42-1.3 1.69-3.15-1.64-.88Zm7.15-7.32-1.52 2.16 7.63 5.37-1.16 1.65-7.63-5.38-1.52 2.17-1.52-1.06 4.2-5.98 1.52 1.07Zm2.4-5.74 7.06 2.91L30 30.51l1.44-1.4-2.92-2.98L25.75 19l-1.54 1.52 1.87 4.06.75 1.01-.06.06-.97-.76-4.07-1.93-1.7 1.68Zm12.24-3.71c.34.45.68.85 1.03 1.2.34.35.68.62 1 .8.34.2.66.3.96.33.3.02.6-.07.86-.28.5-.37.68-.9.54-1.59a7.28 7.28 0 0 0-1.45-2.69c-.32-.43-.66-.82-1-1.17a5.21 5.21 0 0 0-1.01-.82c-.33-.2-.65-.31-.96-.34-.32-.02-.61.07-.9.29-.97.74-.66 2.16.93 4.27Zm-1.68 1.27c-1.14-1.51-1.75-2.86-1.83-4.04-.08-1.19.4-2.18 1.47-2.98a3.3 3.3 0 0 1 3.36-.57c.56.21 1.11.56 1.67 1.04.56.48 1.1 1.07 1.64 1.78 1.14 1.51 1.74 2.87 1.8 4.06a3.34 3.34 0 0 1-1.46 2.97 3.3 3.3 0 0 1-3.36.57 5.5 5.5 0 0 1-1.66-1.04c-.56-.49-1.1-1.08-1.63-1.79ZM42.43 7.8l-1.67.92L44.23 15c.4.73.6 1.3.58 1.74-.02.43-.26.77-.71 1.02-.48.27-.9.3-1.27.11-.38-.19-.77-.66-1.2-1.43l-3.47-6.28-1.76.97 3.64 6.6c.63 1.13 1.35 1.84 2.15 2.12.8.28 1.75.12 2.82-.47a3.15 3.15 0 0 0 1.67-2.04c.2-.86-.04-1.92-.74-3.19L42.43 7.8Z" fill="#9E8C6C"/></svg>