<svg width="61" height="50" fill="none" xmlns="http://www.w3.org/2000/svg"><path d="M51.582 18.974a22.23 22.23 0 00-6.936-9.09 21.96 21.96 0 00-10.503-4.397 21.887 21.887 0 00-11.278 1.464 22.083 22.083 0 00-9.058 6.934 22.354 22.354 0 00-4.43 10.564 22.432 22.432 0 001.373 11.386 22.238 22.238 0 006.813 9.183 21.965 21.965 0 0010.442 4.542c-.5-1.817-1.008-3.824-1.456-5.953a27.766 27.766 0 004.1 2.216s.104 1.877.241 3.971c1.54.027 3.08-.11 4.592-.408a1.874 1.874 0 010-.66c.25-1.626.939-4.554 1.077-6.44a13.212 13.212 0 002.498-3.223l-.052.382c-.474 3.702-1.464 7.655-2.067 8.75a4.845 4.845 0 01-.715 1 22.006 22.006 0 008.563-4.142 22.237 22.237 0 006.047-7.385 22.45 22.45 0 00.749-18.694zm-1.266 3.293c-.38.373-1.163.625-1.293-.504-.129-1.13-.163-1.92-.163-1.92s-1.663-2.98-2.283-3.015c-.62-.035-5.022 3.015-6.185 4.344-1.008 1.121-1.206 1.043-1.206 3.015 0 1.486.19 7.1.086 11.392l-7.02 1.885a54.706 54.706 0 01-6.72 1.495l-.861-5.066h-.12l-2.215-11.444s-3.282-1.25-4.488-1.59a3.214 3.214 0 00-3.445.548c-.472.417-.85.931-1.107 1.509a4.437 4.437 0 00-.384 1.836c.182.404.321.826.414 1.26.043.417-1.034.374-1.723.374-.69 0-.793-1.252-.25-2.72a19.89 19.89 0 011.568-3.25 10.312 10.312 0 011.783-2.511s.12-.296 1.077-.209c.956.087 6.271.374 6.271.374l.043-1.972a121.95 121.95 0 0117.436-1.165v1.59a19.265 19.265 0 017.011-1.737.778.778 0 01.664.338c.293.374 2.076 2.607 2.283 2.929a24.351 24.351 0 011.576 2.606 5.44 5.44 0 01-.75 1.6v.008z" fill="#FDC305"/><path d="M48.636 16.95c.405.52.758.981.862 1.12a24.365 24.365 0 011.576 2.607 5.442 5.442 0 01-.74 1.546c-.38.374-1.164.626-1.293-.503-.13-1.13-.18-1.877-.18-1.877s-1.663-2.98-2.283-3.015c-.62-.035-5.023 3.015-6.186 4.344-1.008 1.121-1.206 1.043-1.206 3.015 0 1.304.147 5.778.112 9.758 1.56.174 3.851.608 4.54 1.634 0 0-.25-6.24 6.728-2.972 0 0 .241-8.507 9.872-6.326a37.71 37.71 0 00-11.802-9.332zm-9.071-2.017A79.248 79.248 0 0038.36.57s-.13-1.13-.75-.208a12.47 12.47 0 00-1.034 3.475 60.535 60.535 0 00-11.043.296c-.707-2.39-1.913-3.476-2.49-3.19-.577.287-.646 2.85-.646 2.85l-.284 12.305a121.956 121.956 0 0117.452-1.165z" fill="#F06351"/><path d="M39.065 39.063c.112-.93.172-2.164.207-3.528l-7.02 1.886a54.73 54.73 0 01-6.72 1.538l.957 4.344c0 .096 0 .192.06.287a27.754 27.754 0 004.1 2.216 36.478 36.478 0 005.927-3.589v.052a13.204 13.204 0 002.49-3.206z" fill="#E55645"/><path d="M27.566 12.213c-.043-.086.861.591 1.214.8.353.209.526.365.526.513 0 .147-.224.295-.534.295-.31 0-.793-.104-.862-.226-.069-.122.517 0 .81 0h.25a6.99 6.99 0 01-1.404-1.382zm6.46.097s-.861 1.111-.939 1.163c-.077.053-.146.296.164.252a6.911 6.911 0 001.051-.243c.095-.052.06-.174-.103-.156-.164.017-.586.043-.862.095l.732-1.103s.026-.104-.043-.009zm-2.704 5.308c.399-.177.729-.483.938-.869.242-.573 0-.79-.379-.869a2.095 2.095 0 00-1.507.296c-.336.321-.293.634 0 .869.29.23.61.422.948.573z" fill="#000"/><path d="M31.011 18.713a1.78 1.78 0 01-.396.521c-.245.2-.547.315-.861.33a1.866 1.866 0 01-1.327-.382 1.725 1.725 0 01-.456-.39.862.862 0 00-.31-.218s.645 3.571 2.213 4.145c1.568.573 1.86-.66 1.904-.99a4.925 4.925 0 00-.706-2.816c0-.26-.018-.087-.06-.2z" fill="#F06351"/><path d="M29.547 19.704a2.998 2.998 0 01-2.024-1.243.131.131 0 010-.174.123.123 0 01.086-.036.121.121 0 01.086.036 2.784 2.784 0 001.817 1.139 1.806 1.806 0 001.413-.87l.12-.165.087.192s.327.66.861.695c.534.035.913-.365 1.404-1.121a.123.123 0 01.172-.035.126.126 0 01.035.174c-.574.852-1.117 1.26-1.628 1.225a1.328 1.328 0 01-.965-.634 1.954 1.954 0 01-1.464.817z" fill="#000"/><path d="M31.235 31.4c1.784 0 3.23-1.46 3.23-3.26 0-1.799-1.446-3.258-3.23-3.258s-3.23 1.46-3.23 3.259c0 1.8 1.446 3.258 3.23 3.258z" fill="#FDC305"/><path d="M35.516 25.49l-2.696 1.14.99-4.892-6.46 8.48 2.697-1.138-.991 4.9 6.46-8.488zm-6.365 3.329l3.583-4.701-.698 3.475 1.723-.712-3.61 4.71.699-3.476-1.697.704zm-1.206-1.278a.969.969 0 00.965-.973.97.97 0 00-.965-.973.97.97 0 00-.965.973.97.97 0 00.965.973zm5.616 3.528c.376 0 .68-.307.68-.686a.684.684 0 00-.68-.687.684.684 0 00-.68.687c0 .379.304.686.68.686zm.827-1.886a.303.303 0 00.302-.304.303.303 0 00-.302-.304.303.303 0 00-.301.304c0 .168.135.304.301.304z" fill="#111"/><path d="M39.522 16.506a49.73 49.73 0 00-4.384 4.527 27.555 27.555 0 01-4.574 4.258c-.19-.46-1.405-1.321-1.405-1.321s-2.704-1.868-4.48-3.337a27.578 27.578 0 01-2.704-2.606l-1.723-.096a19.507 19.507 0 0010.337 7.681c.741-.121 2.826-1.625 4.385-2.85a49.885 49.885 0 005.169-5.135 5.577 5.577 0 00.982-1.738c-.982.33-1.603.617-1.603.617zM22.337 22.45s-3.282-1.252-4.488-1.59a3.213 3.213 0 00-3.446.547c-.472.417-.85.931-1.107 1.509a4.439 4.439 0 00-.383 1.836c.182.404.32.826.413 1.26.043.417-1.033.374-1.723.374-.689 0-.792-1.252-.25-2.72.424-1.13.949-2.217 1.568-3.25C8.227 22.884 0 28.584 0 28.584a39.136 39.136 0 017.055.209c4.523.46 4.307 4.057 4.307 4.057a33.033 33.033 0 014.85-.964c1.826-.122 1.956 1.842 1.956 1.842l.456 3.354a15.804 15.804 0 012.283-2.05 5.189 5.189 0 013.773-1.13l-2.343-11.453z" fill="#F06351"/></svg>